<svg width="24" height="24" viewBox="0 0 24 24" fill="none" xmlns="http://www.w3.org/2000/svg">
<path d="M6.44904 2.50055C8.13525 1.51669 10.0535 0.998766 12.0066 1C13.6891 1.00095 15.3489 1.38716 16.8584 2.12894C18.3679 2.87071 19.6868 3.94827 20.7137 5.27871C21.7405 6.60915 22.448 8.15702 22.7816 9.80322C23.1152 11.4494 23.0661 13.1501 22.638 14.7743C22.2099 16.3986 21.4143 17.9032 20.3123 19.1724C19.2104 20.4415 17.8314 21.4414 16.2816 22.0951C14.7318 22.7488 13.0524 23.0389 11.3727 22.9431C9.69299 22.8473 8.05767 22.368 6.59257 21.5423L2.46112 22.9412C2.26215 23.009 2.04789 23.0184 1.84373 22.9683C1.63957 22.9183 1.45405 22.8108 1.30915 22.6588C1.16425 22.5068 1.06602 22.3164 1.02612 22.1104C0.986208 21.9043 1.00629 21.6912 1.08397 21.4962L2.60412 17.6904C1.5885 16.025 1.03539 14.1197 1.00164 12.1702C0.967893 10.2208 1.45471 8.29756 2.41208 6.59814C3.36945 4.89872 4.76283 3.48441 6.44904 2.50055Z" fill="#5F00D9"/>
</svg>
