<svg width="16" height="16" viewBox="0 0 16 16" fill="none" xmlns="http://www.w3.org/2000/svg">
<g clip-path="url(#clip0_2559_573)">
<path fill-rule="evenodd" clip-rule="evenodd" d="M7.99968 16.0001C12.418 16.0001 15.9997 12.4184 15.9997 8.00005C15.9997 3.58174 12.418 0 7.99968 0C3.58137 0 -0.000366211 3.58174 -0.000366211 8.00005C-0.000366211 12.4184 3.58137 16.0001 7.99968 16.0001ZM8.71002 10.3105C8.50521 10.4812 8.17241 10.5665 7.71161 10.5665C7.25933 10.5665 6.85828 10.494 6.5084 10.3489C6.36328 10.2852 6.2292 10.2186 6.10612 10.149C5.81648 9.98528 5.43172 9.92444 5.22835 10.1878C5.11011 10.3408 5.03639 10.5231 5.03639 10.7329C5.03639 11.0913 5.22839 11.39 5.6124 11.6289C6.00492 11.8593 6.51268 12.0087 7.13561 12.0769V12.3329C7.13561 12.6231 7.20389 12.8236 7.34041 12.9345C7.48549 13.0455 7.71589 13.1009 8.03161 13.1009C8.09021 13.1009 8.14953 13.099 8.20909 13.0952C8.52965 13.0747 8.74842 12.786 8.74842 12.4648V12.0129C9.47374 11.8764 10.0241 11.6076 10.3996 11.2065C10.7751 10.7969 10.9628 10.2977 10.9628 9.70891C10.9628 9.04331 10.7537 8.51427 10.3356 8.12171C9.92602 7.72918 9.33722 7.41346 8.56921 7.1745L7.85241 6.9569C7.56229 6.86306 7.34469 6.76066 7.19961 6.6497C7.06309 6.53878 6.99481 6.39369 6.99481 6.21449C6.99481 5.99265 7.09721 5.81345 7.30201 5.67689C7.51533 5.53185 7.83533 5.45929 8.26201 5.45929C8.64602 5.45929 9.00014 5.51049 9.32442 5.61289C9.42522 5.64133 9.51978 5.67173 9.60806 5.70409C9.92906 5.82169 10.3376 5.83841 10.4925 5.53373C10.5553 5.41033 10.5916 5.27397 10.5916 5.12649C10.5916 4.80225 10.4209 4.54196 10.0796 4.34568C9.7383 4.14088 9.29454 4.00864 8.74842 3.94888V3.66728C8.74842 3.37716 8.6759 3.17664 8.53082 3.06568C8.39429 2.95475 8.16813 2.89927 7.85241 2.89927C7.79385 2.89927 7.73453 2.90123 7.67493 2.90507C7.35441 2.92555 7.13561 3.21424 7.13561 3.53544V4.00008C6.47 4.12808 5.958 4.38408 5.5996 4.76809C5.2412 5.15209 5.06199 5.63425 5.06199 6.21449C5.06199 6.55586 5.11748 6.85026 5.2284 7.0977C5.33932 7.34518 5.49292 7.5585 5.6892 7.7377C5.88548 7.9169 6.1244 8.07051 6.406 8.19851C6.6876 8.32651 7.00333 8.44599 7.35321 8.55691L8.05721 8.78731C8.38149 8.88971 8.62469 9.00919 8.78682 9.14571C8.94894 9.28227 9.03002 9.46147 9.03002 9.68331C9.03002 9.9308 8.92334 10.1399 8.71002 10.3105Z" fill="#171717"/>
</g>
<defs>
<clipPath id="clip0_2559_573">
<rect width="16" height="16" fill="white"/>
</clipPath>
</defs>
</svg>
