<svg width="16" height="16" viewBox="0 0 16 16" fill="none" xmlns="http://www.w3.org/2000/svg">
<path fill-rule="evenodd" clip-rule="evenodd" d="M10.3107 11.3756C9.93136 11.6664 9.50954 11.9146 9.04925 12.1103C6.10881 13.3598 2.71204 11.9893 1.46236 9.04893C0.21269 6.10859 1.58337 2.71199 4.5238 1.4624C7.46424 0.2128 10.861 1.58338 12.1107 4.52372C12.9558 6.51228 12.6025 8.70953 11.3756 10.3102L14.7794 13.7143C15.0735 14.0085 15.0735 14.4854 14.7794 14.7795C14.4852 15.0736 14.0083 15.0736 13.7142 14.7794L10.3107 11.3756ZM2.84873 8.45977C1.92448 6.28511 2.93821 3.77296 5.11301 2.84873C7.28781 1.92451 9.80007 2.93823 10.7243 5.11288C11.421 6.75201 11.0166 8.58288 9.84389 9.78099C9.83294 9.79074 9.82221 9.80086 9.81171 9.81136C9.8011 9.82197 9.79087 9.83282 9.78102 9.84389C9.41024 10.2072 8.96664 10.5086 8.46004 10.7239C6.28524 11.6481 3.77298 10.6344 2.84873 8.45977Z" fill="#797E82"/>
</svg>
