<svg width="50" height="50" viewBox="0 0 50 50" fill="none" xmlns="http://www.w3.org/2000/svg">
    <circle cx="25" cy="25" r="24.5" fill="white" stroke="black" />
    <path d="M25.0003 15.5H25.0004C26.2079 15.4996 27.3819 15.8966 28.3413 16.6296C29.3008 17.3627 29.9923 18.3911 30.3093 19.5561C30.6263 20.7212 30.5511 21.9583 30.0952 23.0763C29.6394 24.1944 28.8283 25.1315 27.7871 25.7428L26.7995 26.3227L27.8962 26.6528C31.4049 27.7088 34.0288 30.6611 34.4994 34.3159C34.5081 34.3856 34.4563 34.4853 34.3271 34.5004L34.3269 34.5004C34.1946 34.516 34.1107 34.4256 34.1012 34.3515L34.1012 34.3511C33.5278 29.9024 29.6782 26.57 25.0353 26.57C20.3723 26.57 16.4722 29.9046 15.8994 34.3511L15.8993 34.3515C15.8898 34.4256 15.8059 34.516 15.6736 34.5004L15.6735 34.5004C15.544 34.4852 15.4923 34.3852 15.5012 34.3155C15.9706 30.6791 18.6078 27.729 22.1253 26.6625L23.2232 26.3296L22.232 25.752C21.1876 25.1434 20.3728 24.2077 19.9136 23.0896C19.4544 21.9714 19.3763 20.7332 19.6914 19.5662C20.0065 18.3992 20.6973 17.3686 21.6569 16.6336C22.6165 15.8986 23.7916 15.5002 25.0003 15.5ZM24.9933 26.073C25.6499 26.073 26.3001 25.9437 26.9067 25.6924C27.5133 25.4411 28.0645 25.0728 28.5288 24.6085C28.9931 24.1442 29.3614 23.593 29.6127 22.9864C29.8639 22.3798 29.9933 21.7296 29.9933 21.073C29.9933 20.4164 29.8639 19.7662 29.6127 19.1596C29.3614 18.553 28.9931 18.0018 28.5288 17.5375C28.0645 17.0732 27.5133 16.7049 26.9067 16.4536C26.3001 16.2023 25.6499 16.073 24.9933 16.073C23.6672 16.073 22.3954 16.5998 21.4577 17.5375C20.52 18.4751 19.9933 19.7469 19.9933 21.073C19.9933 22.3991 20.52 23.6709 21.4577 24.6085C22.3954 25.5462 23.6672 26.073 24.9933 26.073Z" fill="black" stroke="black" />
</svg>