<svg width="16" height="16" viewBox="0 0 16 16" fill="none" xmlns="http://www.w3.org/2000/svg">
<path d="M8 1C6.61553 1 5.26215 1.41054 4.11101 2.17971C2.95987 2.94888 2.06266 4.04213 1.53285 5.32121C1.00303 6.6003 0.86441 8.00776 1.13451 9.36563C1.4046 10.7235 2.07129 11.9708 3.05026 12.9497C4.02922 13.9287 5.2765 14.5954 6.63437 14.8655C7.99224 15.1356 9.3997 14.997 10.6788 14.4672C11.9579 13.9373 13.0511 13.0401 13.8203 11.889C14.5895 10.7378 15 9.38447 15 8C14.9978 6.14417 14.2596 4.36498 12.9473 3.05271C11.635 1.74043 9.85583 1.00222 8 1V1ZM11.15 9.05H9.05V11.15C9.05 11.4285 8.93938 11.6955 8.74246 11.8925C8.54555 12.0894 8.27848 12.2 8 12.2C7.72152 12.2 7.45445 12.0894 7.25754 11.8925C7.06063 11.6955 6.95 11.4285 6.95 11.15V9.05H4.85C4.57153 9.05 4.30445 8.93937 4.10754 8.74246C3.91063 8.54555 3.8 8.27848 3.8 8C3.8 7.72152 3.91063 7.45445 4.10754 7.25754C4.30445 7.06062 4.57153 6.95 4.85 6.95H6.95V4.85C6.95 4.57152 7.06063 4.30445 7.25754 4.10754C7.45445 3.91062 7.72152 3.8 8 3.8C8.27848 3.8 8.54555 3.91062 8.74246 4.10754C8.93938 4.30445 9.05 4.57152 9.05 4.85V6.95H11.15C11.4285 6.95 11.6955 7.06062 11.8925 7.25754C12.0894 7.45445 12.2 7.72152 12.2 8C12.2 8.27848 12.0894 8.54555 11.8925 8.74246C11.6955 8.93937 11.4285 9.05 11.15 9.05Z" fill="white"/>
</svg>
