<svg width="16" height="16" viewBox="0 0 16 16" fill="none" xmlns="http://www.w3.org/2000/svg">
<g clip-path="url(#clip0_2559_599)">
<path fill-rule="evenodd" clip-rule="evenodd" d="M15.9997 8.00004C15.9997 12.4183 12.418 16.0001 7.99967 16.0001C3.58137 16.0001 -0.000366211 12.4183 -0.000366211 8.00004C-0.000366211 3.58174 3.58137 0 7.99967 0C12.418 0 15.9997 3.58174 15.9997 8.00004ZM6.35964 3.56996V4.28068C6.17104 4.31224 5.99775 4.35352 5.83987 4.4046C5.70087 4.45096 5.59275 4.51272 5.51551 4.58996C5.43827 4.6672 5.39967 4.77916 5.39967 4.92592V10.5906C5.39967 10.9227 5.58503 11.1506 5.95571 11.2741C6.0818 11.3139 6.21644 11.348 6.35964 11.3764V11.9558C6.35964 12.2747 6.40536 12.4951 6.4968 12.617C6.59392 12.739 6.74824 12.8 6.95964 12.8C7.02564 12.8 7.1038 12.791 7.18232 12.7758C7.34164 12.7448 7.43964 12.5955 7.43964 12.4332V11.5174C7.60912 11.5251 7.76704 11.529 7.91348 11.529C7.99716 11.529 8.07925 11.5278 8.15965 11.5253V11.9558C8.15965 12.2747 8.20537 12.4951 8.29681 12.617C8.39397 12.739 8.54825 12.8 8.75965 12.8C8.82565 12.8 8.90381 12.791 8.98237 12.7758C9.14165 12.7448 9.23965 12.5955 9.23965 12.4332V11.3984C9.63097 11.3096 9.96117 11.1755 10.2303 10.9961C10.7632 10.6408 11.0297 10.0964 11.0297 9.36271C11.0297 8.9611 10.9177 8.61358 10.6937 8.3201C10.4697 8.02666 10.1338 7.80654 9.68585 7.65982C10.0489 7.50534 10.3191 7.30069 10.4968 7.04585C10.6821 6.79097 10.7748 6.48977 10.7748 6.14225C10.7748 5.47037 10.5199 4.97612 10.0102 4.65948C9.79221 4.52072 9.53537 4.41168 9.23965 4.33228V3.79848C9.23965 3.57236 9.19109 3.41607 9.09397 3.32959C9.00253 3.24315 8.85109 3.19991 8.63965 3.19991C8.57849 3.19991 8.51609 3.20363 8.45365 3.21075C8.27693 3.23091 8.15965 3.39208 8.15965 3.56996V4.17944C8.05729 4.17508 7.95204 4.17292 7.84396 4.17292C7.70716 4.17292 7.5724 4.17544 7.43964 4.18048V3.79848C7.43964 3.57236 7.39108 3.41607 7.29392 3.32959C7.20252 3.24315 7.05108 3.19991 6.83964 3.19991C6.77848 3.19991 6.71608 3.20363 6.65364 3.21075C6.47692 3.23091 6.35964 3.39208 6.35964 3.56996ZM9.50053 9.30478C9.50053 8.99586 9.38853 8.75258 9.16457 8.57498C8.94833 8.39734 8.63169 8.30854 8.21465 8.30854H6.85928V10.2431C7.00604 10.2817 7.1798 10.3088 7.3806 10.3242C7.58912 10.3396 7.79376 10.3474 7.99456 10.3474C8.46565 10.3474 8.83249 10.2663 9.09505 10.1041C9.36537 9.93419 9.50053 9.66775 9.50053 9.30478ZM6.85928 7.20801H8.02932C8.44633 7.20801 8.75525 7.12305 8.95605 6.95317C9.16457 6.78325 9.26881 6.54773 9.26881 6.24653C9.26881 5.63641 8.79773 5.33136 7.85556 5.33136C7.66248 5.33136 7.47712 5.33908 7.29948 5.35452C7.1296 5.36996 6.98288 5.38929 6.85928 5.41245V7.20801Z" fill="#171717"/>
</g>
<defs>
<clipPath id="clip0_2559_599">
<rect width="16" height="16" fill="white"/>
</clipPath>
</defs>
</svg>
