<svg width="16" height="16" viewBox="0 0 16 16" fill="none" xmlns="http://www.w3.org/2000/svg">
<path d="M7.4792 10.5676C7.54485 10.6407 7.62515 10.6992 7.71488 10.7392C7.80461 10.7792 7.90175 10.7999 8 10.7999C8.09825 10.7999 8.1954 10.7792 8.28513 10.7392C8.37486 10.6992 8.45516 10.6407 8.5208 10.5676L11.6708 7.0676C11.7611 6.96697 11.8204 6.84233 11.8414 6.70874C11.8624 6.57516 11.8443 6.43835 11.7892 6.31485C11.7341 6.19135 11.6444 6.08645 11.531 6.01283C11.4176 5.93921 11.2852 5.90002 11.15 5.9H9.05V2.05C9.05 1.77152 8.93938 1.50445 8.74247 1.30754C8.54555 1.11062 8.27848 1 8 1C7.72153 1 7.45445 1.11062 7.25754 1.30754C7.06063 1.50445 6.95 1.77152 6.95 2.05V5.9H4.85C4.71478 5.90002 4.58245 5.93921 4.46902 6.01283C4.35559 6.08645 4.26591 6.19135 4.21083 6.31485C4.15574 6.43835 4.13761 6.57516 4.15861 6.70874C4.17962 6.84233 4.23887 6.96697 4.3292 7.0676L7.4792 10.5676Z" fill="white"/>
<path d="M11.5 12.9H4.49998C4.2215 12.9 3.95443 13.0106 3.75752 13.2075C3.56061 13.4044 3.44998 13.6715 3.44998 13.95C3.44998 14.2284 3.56061 14.4955 3.75752 14.6924C3.95443 14.8893 4.2215 15 4.49998 15H11.5C11.7785 15 12.0455 14.8893 12.2424 14.6924C12.4394 14.4955 12.55 14.2284 12.55 13.95C12.55 13.6715 12.4394 13.4044 12.2424 13.2075C12.0455 13.0106 11.7785 12.9 11.5 12.9Z" fill="white"/>
</svg>
