<svg width="24" height="24" viewBox="0 0 24 24" fill="none" xmlns="http://www.w3.org/2000/svg">
<path d="M11.241 10.7143C11.4639 10.8628 11.7287 10.9424 12 10.9424C12.2713 10.9424 12.5361 10.8628 12.759 10.7143L21.8868 4.14456C21.9492 4.09775 22.0003 4.03862 22.0368 3.97118C22.0733 3.90373 22.0942 3.82955 22.0982 3.75366C22.1021 3.67778 22.089 3.60196 22.0598 3.53135C22.0305 3.46074 21.9858 3.397 21.9286 3.34444C21.3222 2.80497 20.5269 2.50361 19.7 2.5H4.29999C3.47311 2.50361 2.67777 2.80497 2.07139 3.34444C2.01158 3.39666 1.96456 3.46093 1.93371 3.53265C1.90285 3.60437 1.88892 3.68175 1.89291 3.75924C1.89691 3.83674 1.91873 3.91242 1.95682 3.98087C1.9949 4.04931 2.04831 4.10882 2.11319 4.15511L11.241 10.7143Z" fill="#5F00D9"/>
<path d="M14.0768 12.4011C13.474 12.8239 12.7466 13.0517 12 13.0517C11.2534 13.0517 10.526 12.8239 9.9232 12.4011L1.88 6.61459C1.79829 6.55578 1.70112 6.51997 1.59939 6.51117C1.49766 6.50236 1.39539 6.52092 1.30403 6.56475C1.21267 6.60859 1.13584 6.67597 1.08214 6.75934C1.02844 6.84272 1 6.9388 1 7.03681V18.3334C1 19.1732 1.34768 19.9787 1.96655 20.5725C2.58542 21.1664 3.42479 21.5 4.3 21.5H19.7C20.5752 21.5 21.4146 21.1664 22.0335 20.5725C22.6523 19.9787 23 19.1732 23 18.3334V7.03681C23 6.9388 22.9716 6.84272 22.9179 6.75934C22.8642 6.67597 22.7873 6.60859 22.696 6.56475C22.6046 6.52092 22.5023 6.50236 22.4006 6.51117C22.2989 6.51997 22.2017 6.55578 22.12 6.61459L14.0768 12.4011Z" fill="#5F00D9"/>
</svg>
