<svg width="16" height="16" viewBox="0 0 16 16" fill="none" xmlns="http://www.w3.org/2000/svg">
<path d="M4.58402 7.99291L7.38402 10.8298C7.54877 10.9927 7.76984 11.0838 8.00002 11.0838C8.23021 11.0838 8.45128 10.9927 8.61602 10.8298L11.416 7.99291C11.4994 7.91093 11.5657 7.81282 11.611 7.70439C11.6563 7.59597 11.6796 7.47943 11.6796 7.3617C11.6796 7.24397 11.6563 7.12744 11.611 7.01901C11.5657 6.91058 11.4994 6.81247 11.416 6.7305C11.2348 6.60751 11.017 6.55234 10.8 6.57447H8.86802V1.87943C8.86802 1.64619 8.77657 1.42251 8.61379 1.25758C8.45101 1.09265 8.23023 1 8.00002 1C7.76982 1 7.54904 1.09265 7.38626 1.25758C7.22347 1.42251 7.13203 1.64619 7.13203 1.87943V6.57447H5.20002C5.04577 6.59125 4.89862 6.64896 4.77341 6.74177C4.6482 6.83458 4.54937 6.95921 4.48689 7.10308C4.42441 7.24695 4.40049 7.40498 4.41755 7.56121C4.4346 7.71744 4.49202 7.86635 4.58402 7.99291Z" fill="white"/>
<path d="M13.95 9.68079C13.6715 9.68079 13.4045 9.79287 13.2075 9.99237C13.0106 10.1919 12.9 10.4625 12.9 10.7446V12.5177C12.9 12.6117 12.8631 12.7019 12.7975 12.7684C12.7318 12.8349 12.6428 12.8723 12.55 12.8723H3.45C3.35717 12.8723 3.26815 12.8349 3.20251 12.7684C3.13687 12.7019 3.1 12.6117 3.1 12.5177V10.7446C3.1 10.4625 2.98938 10.1919 2.79246 9.99237C2.59555 9.79287 2.32848 9.68079 2.05 9.68079C1.77152 9.68079 1.50445 9.79287 1.30754 9.99237C1.11062 10.1919 1 10.4625 1 10.7446L1 12.5177C1.00368 13.1749 1.26298 13.8041 1.72165 14.2688C2.18032 14.7335 2.80135 14.9962 3.45 14.9999H12.55C13.1986 14.9962 13.8197 14.7335 14.2784 14.2688C14.737 13.8041 14.9963 13.1749 15 12.5177V10.7446C15 10.4625 14.8894 10.1919 14.6925 9.99237C14.4955 9.79287 14.2285 9.68079 13.95 9.68079Z" fill="white"/>
</svg>
