<svg width="16" height="16" viewBox="0 0 16 16" fill="none" xmlns="http://www.w3.org/2000/svg">
<path d="M8.52077 5.4324C8.45337 5.36228 8.37249 5.30649 8.283 5.26838C8.19351 5.23028 8.09724 5.21063 7.99997 5.21063C7.90271 5.21063 7.80644 5.23028 7.71695 5.26838C7.62746 5.30649 7.54658 5.36228 7.47917 5.4324L4.32917 8.9324C4.23884 9.03304 4.17959 9.15768 4.15858 9.29126C4.13758 9.42485 4.15571 9.56166 4.2108 9.68515C4.26588 9.80865 4.35556 9.91355 4.46899 9.98717C4.58242 10.0608 4.71475 10.1 4.84997 10.1H6.94997V13.95C6.94997 14.2285 7.0606 14.4956 7.25751 14.6925C7.45442 14.8894 7.7215 15 7.99997 15C8.27845 15 8.54552 14.8894 8.74244 14.6925C8.93935 14.4956 9.04997 14.2285 9.04997 13.95V10.1H11.15C11.2852 10.1 11.4175 10.0608 11.531 9.98717C11.6444 9.91355 11.7341 9.80865 11.7891 9.68515C11.8442 9.56166 11.8624 9.42485 11.8414 9.29126C11.8204 9.15768 11.7611 9.03304 11.6708 8.9324L8.52077 5.4324Z" fill="white"/>
<path d="M11.5 1H4.49998C4.2215 1 3.95443 1.11062 3.75752 1.30754C3.56061 1.50445 3.44998 1.77152 3.44998 2.05C3.44998 2.32848 3.56061 2.59555 3.75752 2.79246C3.95443 2.98938 4.2215 3.1 4.49998 3.1H11.5C11.7785 3.1 12.0455 2.98938 12.2424 2.79246C12.4394 2.59555 12.55 2.32848 12.55 2.05C12.55 1.77152 12.4394 1.50445 12.2424 1.30754C12.0455 1.11062 11.7785 1 11.5 1V1Z" fill="white"/>
</svg>
